<mxfile host="app.diagrams.net" modified="2022-12-01T08:09:54.237Z" agent="5.0 (Windows NT 10.0; Win64; x64) AppleWebKit/537.36 (KHTML, like Gecko) Chrome/107.0.0.0 Safari/537.36" etag="7tl6qDWb0x63eTYaEvbY" version="20.6.0" type="github" pages="5">
  <diagram id="TPinj_YdK0NMMTRJiY0f" name="主界面初始化">
    <mxGraphModel dx="1038" dy="623" grid="1" gridSize="10" guides="1" tooltips="1" connect="1" arrows="1" fold="1" page="1" pageScale="1" pageWidth="827" pageHeight="1169" math="0" shadow="0">
      <root>
        <mxCell id="0" />
        <mxCell id="1" parent="0" />
      </root>
    </mxGraphModel>
  </diagram>
  <diagram id="KlNpMghHDyh2-UQzXcxF" name="建立连接">
    <mxGraphModel dx="1038" dy="567" grid="1" gridSize="10" guides="1" tooltips="1" connect="1" arrows="1" fold="1" page="1" pageScale="1" pageWidth="827" pageHeight="1169" math="0" shadow="0">
      <root>
        <mxCell id="0" />
        <mxCell id="1" parent="0" />
        <mxCell id="uviFNJ67c3pAItaLCfj8-7" value="" style="group" parent="1" vertex="1" connectable="0">
          <mxGeometry x="150" y="30" width="60" height="750" as="geometry" />
        </mxCell>
        <mxCell id="uviFNJ67c3pAItaLCfj8-1" value="" style="shape=umlLifeline;participant=umlActor;perimeter=lifelinePerimeter;whiteSpace=wrap;html=1;container=1;collapsible=0;recursiveResize=0;verticalAlign=top;spacingTop=36;outlineConnect=0;size=40;" parent="uviFNJ67c3pAItaLCfj8-7" vertex="1">
          <mxGeometry x="20" y="30" width="20" height="720" as="geometry" />
        </mxCell>
        <mxCell id="uviFNJ67c3pAItaLCfj8-10" value="连接远程桌面" style="html=1;verticalAlign=bottom;startArrow=oval;endArrow=block;startSize=8;rounded=0;" parent="uviFNJ67c3pAItaLCfj8-1" target="uviFNJ67c3pAItaLCfj8-9" edge="1">
          <mxGeometry relative="1" as="geometry">
            <mxPoint x="-100" y="60" as="sourcePoint" />
          </mxGeometry>
        </mxCell>
        <mxCell id="uviFNJ67c3pAItaLCfj8-43" value="" style="html=1;points=[];perimeter=orthogonalPerimeter;" parent="uviFNJ67c3pAItaLCfj8-1" vertex="1">
          <mxGeometry x="5" y="459" width="10" height="40" as="geometry" />
        </mxCell>
        <mxCell id="uviFNJ67c3pAItaLCfj8-44" value="提示防窥屏处理结果" style="edgeStyle=orthogonalEdgeStyle;html=1;align=left;spacingLeft=2;endArrow=block;rounded=0;entryX=1;entryY=0;" parent="uviFNJ67c3pAItaLCfj8-1" target="uviFNJ67c3pAItaLCfj8-43" edge="1">
          <mxGeometry relative="1" as="geometry">
            <mxPoint x="10" y="439" as="sourcePoint" />
            <Array as="points">
              <mxPoint x="40" y="439" />
            </Array>
          </mxGeometry>
        </mxCell>
        <mxCell id="uviFNJ67c3pAItaLCfj8-52" value="" style="html=1;points=[];perimeter=orthogonalPerimeter;" parent="uviFNJ67c3pAItaLCfj8-1" vertex="1">
          <mxGeometry x="5" y="529" width="10" height="90" as="geometry" />
        </mxCell>
        <mxCell id="uviFNJ67c3pAItaLCfj8-53" value="设置清晰/流畅模式" style="edgeStyle=orthogonalEdgeStyle;html=1;align=left;spacingLeft=2;endArrow=block;rounded=0;entryX=1;entryY=0;" parent="uviFNJ67c3pAItaLCfj8-1" target="uviFNJ67c3pAItaLCfj8-52" edge="1">
          <mxGeometry relative="1" as="geometry">
            <mxPoint x="10" y="509" as="sourcePoint" />
            <Array as="points">
              <mxPoint x="40" y="509" />
            </Array>
          </mxGeometry>
        </mxCell>
        <mxCell id="5m71ZLuCM8RbyTsSQosw-4" value="" style="html=1;points=[];perimeter=orthogonalPerimeter;" parent="uviFNJ67c3pAItaLCfj8-1" vertex="1">
          <mxGeometry x="5" y="649" width="10" height="40" as="geometry" />
        </mxCell>
        <mxCell id="5m71ZLuCM8RbyTsSQosw-5" value="提示设置结果" style="edgeStyle=orthogonalEdgeStyle;html=1;align=left;spacingLeft=2;endArrow=block;rounded=0;entryX=1;entryY=0;" parent="uviFNJ67c3pAItaLCfj8-1" target="5m71ZLuCM8RbyTsSQosw-4" edge="1">
          <mxGeometry relative="1" as="geometry">
            <mxPoint x="10" y="629" as="sourcePoint" />
            <Array as="points">
              <mxPoint x="40" y="629" />
            </Array>
          </mxGeometry>
        </mxCell>
        <mxCell id="uviFNJ67c3pAItaLCfj8-4" value="应用层" style="text;html=1;strokeColor=none;fillColor=none;align=center;verticalAlign=middle;whiteSpace=wrap;rounded=0;" parent="uviFNJ67c3pAItaLCfj8-7" vertex="1">
          <mxGeometry width="60" height="30" as="geometry" />
        </mxCell>
        <mxCell id="uviFNJ67c3pAItaLCfj8-9" value="" style="html=1;points=[];perimeter=orthogonalPerimeter;" parent="uviFNJ67c3pAItaLCfj8-7" vertex="1">
          <mxGeometry x="25" y="90" width="10" height="120" as="geometry" />
        </mxCell>
        <mxCell id="uviFNJ67c3pAItaLCfj8-28" value="" style="html=1;points=[];perimeter=orthogonalPerimeter;" parent="uviFNJ67c3pAItaLCfj8-7" vertex="1">
          <mxGeometry x="25" y="286" width="10" height="164" as="geometry" />
        </mxCell>
        <mxCell id="uviFNJ67c3pAItaLCfj8-11" value="" style="group" parent="1" vertex="1" connectable="0">
          <mxGeometry x="340" y="30" width="60" height="750" as="geometry" />
        </mxCell>
        <mxCell id="uviFNJ67c3pAItaLCfj8-2" value="" style="shape=umlLifeline;participant=umlActor;perimeter=lifelinePerimeter;whiteSpace=wrap;html=1;container=1;collapsible=0;recursiveResize=0;verticalAlign=top;spacingTop=36;outlineConnect=0;size=40;" parent="uviFNJ67c3pAItaLCfj8-11" vertex="1">
          <mxGeometry x="20" y="30" width="20" height="720" as="geometry" />
        </mxCell>
        <mxCell id="uviFNJ67c3pAItaLCfj8-20" value="" style="html=1;points=[];perimeter=orthogonalPerimeter;" parent="uviFNJ67c3pAItaLCfj8-2" vertex="1">
          <mxGeometry x="5" y="180" width="10" height="80" as="geometry" />
        </mxCell>
        <mxCell id="5m71ZLuCM8RbyTsSQosw-1" value="" style="html=1;points=[];perimeter=orthogonalPerimeter;" parent="uviFNJ67c3pAItaLCfj8-2" vertex="1">
          <mxGeometry x="5" y="564" width="10" height="35" as="geometry" />
        </mxCell>
        <mxCell id="5m71ZLuCM8RbyTsSQosw-2" value="设置清晰/流畅模式" style="html=1;verticalAlign=bottom;endArrow=block;entryX=0;entryY=0;rounded=0;" parent="uviFNJ67c3pAItaLCfj8-2" target="5m71ZLuCM8RbyTsSQosw-1" edge="1">
          <mxGeometry relative="1" as="geometry">
            <mxPoint x="-170" y="564" as="sourcePoint" />
          </mxGeometry>
        </mxCell>
        <mxCell id="5m71ZLuCM8RbyTsSQosw-3" value="返回设置结果" style="html=1;verticalAlign=bottom;endArrow=open;dashed=1;endSize=8;exitX=0;exitY=0.95;rounded=0;" parent="uviFNJ67c3pAItaLCfj8-2" source="5m71ZLuCM8RbyTsSQosw-1" edge="1">
          <mxGeometry relative="1" as="geometry">
            <mxPoint x="-170" y="599" as="targetPoint" />
          </mxGeometry>
        </mxCell>
        <mxCell id="uviFNJ67c3pAItaLCfj8-5" value="基座" style="text;html=1;strokeColor=none;fillColor=none;align=center;verticalAlign=middle;whiteSpace=wrap;rounded=0;" parent="uviFNJ67c3pAItaLCfj8-11" vertex="1">
          <mxGeometry width="60" height="30" as="geometry" />
        </mxCell>
        <mxCell id="uviFNJ67c3pAItaLCfj8-12" value="" style="group" parent="1" vertex="1" connectable="0">
          <mxGeometry x="488" y="30" width="60" height="490" as="geometry" />
        </mxCell>
        <mxCell id="uviFNJ67c3pAItaLCfj8-3" value="" style="shape=umlLifeline;participant=umlActor;perimeter=lifelinePerimeter;whiteSpace=wrap;html=1;container=1;collapsible=0;recursiveResize=0;verticalAlign=top;spacingTop=36;outlineConnect=0;size=40;" parent="uviFNJ67c3pAItaLCfj8-12" vertex="1">
          <mxGeometry x="20" y="30" width="20" height="460" as="geometry" />
        </mxCell>
        <mxCell id="uviFNJ67c3pAItaLCfj8-6" value="EST Client" style="text;html=1;strokeColor=none;fillColor=none;align=center;verticalAlign=middle;whiteSpace=wrap;rounded=0;" parent="uviFNJ67c3pAItaLCfj8-12" vertex="1">
          <mxGeometry width="60" height="30" as="geometry" />
        </mxCell>
        <mxCell id="uviFNJ67c3pAItaLCfj8-23" value="" style="html=1;points=[];perimeter=orthogonalPerimeter;" parent="uviFNJ67c3pAItaLCfj8-12" vertex="1">
          <mxGeometry x="25" y="230" width="10" height="40" as="geometry" />
        </mxCell>
        <mxCell id="WAQAIg3GrRW9MJDfDglU-8" value="连接" style="html=1;verticalAlign=bottom;endArrow=block;rounded=0;" edge="1" parent="uviFNJ67c3pAItaLCfj8-12">
          <mxGeometry width="80" relative="1" as="geometry">
            <mxPoint x="42" y="230" as="sourcePoint" />
            <mxPoint x="212" y="230" as="targetPoint" />
          </mxGeometry>
        </mxCell>
        <mxCell id="uviFNJ67c3pAItaLCfj8-15" value="" style="group" parent="1" vertex="1" connectable="0">
          <mxGeometry x="250" y="30" width="60" height="330" as="geometry" />
        </mxCell>
        <mxCell id="uviFNJ67c3pAItaLCfj8-13" value="" style="shape=umlLifeline;participant=umlActor;perimeter=lifelinePerimeter;whiteSpace=wrap;html=1;container=1;collapsible=0;recursiveResize=0;verticalAlign=top;spacingTop=36;outlineConnect=0;" parent="uviFNJ67c3pAItaLCfj8-15" vertex="1">
          <mxGeometry x="20" y="30" width="20" height="210" as="geometry" />
        </mxCell>
        <mxCell id="uviFNJ67c3pAItaLCfj8-16" value="" style="html=1;points=[];perimeter=orthogonalPerimeter;" parent="uviFNJ67c3pAItaLCfj8-13" vertex="1">
          <mxGeometry x="5" y="95" width="10" height="45" as="geometry" />
        </mxCell>
        <mxCell id="uviFNJ67c3pAItaLCfj8-14" value="服务端" style="text;html=1;strokeColor=none;fillColor=none;align=center;verticalAlign=middle;whiteSpace=wrap;rounded=0;" parent="uviFNJ67c3pAItaLCfj8-15" vertex="1">
          <mxGeometry width="60" height="30" as="geometry" />
        </mxCell>
        <mxCell id="uviFNJ67c3pAItaLCfj8-18" value="返回信息" style="html=1;verticalAlign=bottom;endArrow=open;dashed=1;endSize=8;exitX=0;exitY=0.95;rounded=0;entryX=1.18;entryY=0.66;entryDx=0;entryDy=0;entryPerimeter=0;" parent="1" source="uviFNJ67c3pAItaLCfj8-16" target="uviFNJ67c3pAItaLCfj8-9" edge="1">
          <mxGeometry relative="1" as="geometry">
            <mxPoint x="185" y="231" as="targetPoint" />
          </mxGeometry>
        </mxCell>
        <mxCell id="uviFNJ67c3pAItaLCfj8-17" value="请求对端信息" style="html=1;verticalAlign=bottom;endArrow=block;entryX=0;entryY=0;rounded=0;" parent="1" source="uviFNJ67c3pAItaLCfj8-9" target="uviFNJ67c3pAItaLCfj8-16" edge="1">
          <mxGeometry relative="1" as="geometry">
            <mxPoint x="205" y="155" as="sourcePoint" />
          </mxGeometry>
        </mxCell>
        <mxCell id="uviFNJ67c3pAItaLCfj8-21" value="调用基座connect接口" style="html=1;verticalAlign=bottom;endArrow=block;entryX=0;entryY=0;rounded=0;exitX=0.94;exitY=1.007;exitDx=0;exitDy=0;exitPerimeter=0;" parent="1" source="uviFNJ67c3pAItaLCfj8-9" target="uviFNJ67c3pAItaLCfj8-20" edge="1">
          <mxGeometry relative="1" as="geometry">
            <mxPoint x="295" y="240" as="sourcePoint" />
          </mxGeometry>
        </mxCell>
        <mxCell id="uviFNJ67c3pAItaLCfj8-24" value="调用est建立连接接口" style="html=1;verticalAlign=bottom;endArrow=block;entryX=0;entryY=0;rounded=0;" parent="1" target="uviFNJ67c3pAItaLCfj8-23" edge="1">
          <mxGeometry relative="1" as="geometry">
            <mxPoint x="380" y="260" as="sourcePoint" />
          </mxGeometry>
        </mxCell>
        <mxCell id="uviFNJ67c3pAItaLCfj8-25" value="消息通知连接成功" style="html=1;verticalAlign=bottom;endArrow=open;dashed=1;endSize=8;exitX=0;exitY=0.95;rounded=0;" parent="1" source="uviFNJ67c3pAItaLCfj8-23" target="uviFNJ67c3pAItaLCfj8-20" edge="1">
          <mxGeometry relative="1" as="geometry">
            <mxPoint x="445" y="346" as="targetPoint" />
          </mxGeometry>
        </mxCell>
        <mxCell id="uviFNJ67c3pAItaLCfj8-22" value="消息通知连接成功" style="html=1;verticalAlign=bottom;endArrow=open;dashed=1;endSize=8;exitX=0;exitY=0.95;rounded=0;entryX=1.34;entryY=0;entryDx=0;entryDy=0;entryPerimeter=0;" parent="1" source="uviFNJ67c3pAItaLCfj8-20" target="uviFNJ67c3pAItaLCfj8-28" edge="1">
          <mxGeometry relative="1" as="geometry">
            <mxPoint x="295" y="316" as="targetPoint" />
          </mxGeometry>
        </mxCell>
        <mxCell id="uviFNJ67c3pAItaLCfj8-36" value="" style="group" parent="1" vertex="1" connectable="0">
          <mxGeometry x="590" y="30" width="75" height="639.09" as="geometry" />
        </mxCell>
        <mxCell id="uviFNJ67c3pAItaLCfj8-30" value="" style="shape=umlLifeline;participant=umlActor;perimeter=lifelinePerimeter;whiteSpace=wrap;html=1;container=1;collapsible=0;recursiveResize=0;verticalAlign=top;spacingTop=36;outlineConnect=0;" parent="uviFNJ67c3pAItaLCfj8-36" vertex="1">
          <mxGeometry x="20" y="30" width="20" height="460" as="geometry" />
        </mxCell>
        <mxCell id="uviFNJ67c3pAItaLCfj8-37" value="" style="html=1;points=[];perimeter=orthogonalPerimeter;" parent="uviFNJ67c3pAItaLCfj8-30" vertex="1">
          <mxGeometry x="5" y="300" width="10" height="30" as="geometry" />
        </mxCell>
        <mxCell id="uviFNJ67c3pAItaLCfj8-45" value="" style="html=1;points=[];perimeter=orthogonalPerimeter;" parent="uviFNJ67c3pAItaLCfj8-30" vertex="1">
          <mxGeometry x="5" y="100" width="10" height="30" as="geometry" />
        </mxCell>
        <mxCell id="uviFNJ67c3pAItaLCfj8-47" value="返回" style="html=1;verticalAlign=bottom;endArrow=open;dashed=1;endSize=8;exitX=0;exitY=0.95;rounded=0;" parent="uviFNJ67c3pAItaLCfj8-30" source="uviFNJ67c3pAItaLCfj8-45" edge="1">
          <mxGeometry relative="1" as="geometry">
            <mxPoint x="-320" y="130" as="targetPoint" />
          </mxGeometry>
        </mxCell>
        <mxCell id="WAQAIg3GrRW9MJDfDglU-9" value="返回" style="html=1;verticalAlign=bottom;endArrow=open;dashed=1;endSize=8;rounded=0;" edge="1" parent="uviFNJ67c3pAItaLCfj8-30">
          <mxGeometry relative="1" as="geometry">
            <mxPoint x="90" y="240" as="sourcePoint" />
            <mxPoint x="-80" y="240" as="targetPoint" />
          </mxGeometry>
        </mxCell>
        <mxCell id="uviFNJ67c3pAItaLCfj8-32" value="UWS Client" style="text;html=1;align=center;verticalAlign=middle;resizable=0;points=[];autosize=1;strokeColor=none;fillColor=none;" parent="uviFNJ67c3pAItaLCfj8-36" vertex="1">
          <mxGeometry x="-15" width="90" height="30" as="geometry" />
        </mxCell>
        <mxCell id="m_0_vSr6skzplMtN8A1A-5" value="开启锁屏" style="edgeStyle=orthogonalEdgeStyle;html=1;align=left;spacingLeft=2;endArrow=block;rounded=0;entryX=1.26;entryY=0.592;entryDx=0;entryDy=0;entryPerimeter=0;" edge="1" target="m_0_vSr6skzplMtN8A1A-1" parent="uviFNJ67c3pAItaLCfj8-36">
          <mxGeometry relative="1" as="geometry">
            <mxPoint x="36" y="400" as="sourcePoint" />
            <Array as="points">
              <mxPoint x="66" y="400" />
              <mxPoint x="66" y="420" />
            </Array>
            <mxPoint x="41" y="420" as="targetPoint" />
          </mxGeometry>
        </mxCell>
        <mxCell id="uviFNJ67c3pAItaLCfj8-41" value="开启/关闭防窥屏" style="html=1;verticalAlign=bottom;endArrow=block;rounded=0;" parent="1" edge="1">
          <mxGeometry width="80" relative="1" as="geometry">
            <mxPoint x="190" y="360" as="sourcePoint" />
            <mxPoint x="610" y="360" as="targetPoint" />
          </mxGeometry>
        </mxCell>
        <mxCell id="uviFNJ67c3pAItaLCfj8-42" value="返回结果" style="html=1;verticalAlign=bottom;endArrow=open;dashed=1;endSize=8;rounded=0;" parent="1" edge="1">
          <mxGeometry relative="1" as="geometry">
            <mxPoint x="610" y="390" as="sourcePoint" />
            <mxPoint x="190" y="390" as="targetPoint" />
          </mxGeometry>
        </mxCell>
        <mxCell id="uviFNJ67c3pAItaLCfj8-46" value="发送消息" style="html=1;verticalAlign=bottom;endArrow=block;entryX=0;entryY=0;rounded=0;exitX=1.1;exitY=0.093;exitDx=0;exitDy=0;exitPerimeter=0;" parent="1" source="uviFNJ67c3pAItaLCfj8-16" target="uviFNJ67c3pAItaLCfj8-45" edge="1">
          <mxGeometry relative="1" as="geometry">
            <mxPoint x="545" y="160" as="sourcePoint" />
          </mxGeometry>
        </mxCell>
        <mxCell id="WAQAIg3GrRW9MJDfDglU-1" value="" style="group" vertex="1" connectable="0" parent="1">
          <mxGeometry x="680" y="30" width="70" height="490" as="geometry" />
        </mxCell>
        <mxCell id="WAQAIg3GrRW9MJDfDglU-2" value="" style="shape=umlLifeline;participant=umlActor;perimeter=lifelinePerimeter;whiteSpace=wrap;html=1;container=1;collapsible=0;recursiveResize=0;verticalAlign=top;spacingTop=36;outlineConnect=0;size=40;" vertex="1" parent="WAQAIg3GrRW9MJDfDglU-1">
          <mxGeometry x="20" y="30" width="20" height="460" as="geometry" />
        </mxCell>
        <mxCell id="WAQAIg3GrRW9MJDfDglU-3" value="EST Server" style="text;html=1;strokeColor=none;fillColor=none;align=center;verticalAlign=middle;whiteSpace=wrap;rounded=0;" vertex="1" parent="WAQAIg3GrRW9MJDfDglU-1">
          <mxGeometry width="70" height="30" as="geometry" />
        </mxCell>
        <mxCell id="WAQAIg3GrRW9MJDfDglU-4" value="" style="html=1;points=[];perimeter=orthogonalPerimeter;" vertex="1" parent="WAQAIg3GrRW9MJDfDglU-1">
          <mxGeometry x="25" y="230" width="10" height="40" as="geometry" />
        </mxCell>
        <mxCell id="m_0_vSr6skzplMtN8A1A-1" value="" style="html=1;points=[];perimeter=orthogonalPerimeter;" vertex="1" parent="1">
          <mxGeometry x="615" y="420" width="10" height="50" as="geometry" />
        </mxCell>
        <mxCell id="m_0_vSr6skzplMtN8A1A-2" value="est 连接状态" style="html=1;verticalAlign=bottom;endArrow=block;rounded=0;" edge="1" parent="1">
          <mxGeometry width="80" relative="1" as="geometry">
            <mxPoint x="190" y="420" as="sourcePoint" />
            <mxPoint x="610" y="420" as="targetPoint" />
          </mxGeometry>
        </mxCell>
        <mxCell id="m_0_vSr6skzplMtN8A1A-3" value="返回锁屏结果" style="html=1;verticalAlign=bottom;endArrow=open;dashed=1;endSize=8;rounded=0;" edge="1" parent="1">
          <mxGeometry relative="1" as="geometry">
            <mxPoint x="610" y="467" as="sourcePoint" />
            <mxPoint x="190" y="467" as="targetPoint" />
          </mxGeometry>
        </mxCell>
      </root>
    </mxGraphModel>
  </diagram>
  <diagram id="gYTc2-sO5g8oJWY14jZe" name="结束远程">
    <mxGraphModel dx="1038" dy="567" grid="1" gridSize="10" guides="1" tooltips="1" connect="1" arrows="1" fold="1" page="1" pageScale="1" pageWidth="827" pageHeight="1169" math="0" shadow="0">
      <root>
        <mxCell id="0" />
        <mxCell id="1" parent="0" />
        <mxCell id="V-Hl_M195fdvMt9U0XPw-1" value="" style="group" parent="1" vertex="1" connectable="0">
          <mxGeometry x="150" y="30" width="60" height="580" as="geometry" />
        </mxCell>
        <mxCell id="V-Hl_M195fdvMt9U0XPw-2" value="" style="shape=umlLifeline;participant=umlActor;perimeter=lifelinePerimeter;whiteSpace=wrap;html=1;container=1;collapsible=0;recursiveResize=0;verticalAlign=top;spacingTop=36;outlineConnect=0;size=40;" parent="V-Hl_M195fdvMt9U0XPw-1" vertex="1">
          <mxGeometry x="20" y="30" width="20" height="460" as="geometry" />
        </mxCell>
        <mxCell id="V-Hl_M195fdvMt9U0XPw-3" value="结束远程桌面" style="html=1;verticalAlign=bottom;startArrow=oval;endArrow=block;startSize=8;rounded=0;" parent="V-Hl_M195fdvMt9U0XPw-2" target="V-Hl_M195fdvMt9U0XPw-9" edge="1">
          <mxGeometry relative="1" as="geometry">
            <mxPoint x="-100" y="60" as="sourcePoint" />
          </mxGeometry>
        </mxCell>
        <mxCell id="G93yvb6qo560jHpWj3ij-8" value="" style="html=1;points=[];perimeter=orthogonalPerimeter;" vertex="1" parent="V-Hl_M195fdvMt9U0XPw-2">
          <mxGeometry x="5" y="300" width="10" height="40" as="geometry" />
        </mxCell>
        <mxCell id="G93yvb6qo560jHpWj3ij-9" value="返回到桌面列表页面" style="edgeStyle=orthogonalEdgeStyle;html=1;align=left;spacingLeft=2;endArrow=block;rounded=0;entryX=1;entryY=0;" edge="1" target="G93yvb6qo560jHpWj3ij-8" parent="V-Hl_M195fdvMt9U0XPw-2">
          <mxGeometry relative="1" as="geometry">
            <mxPoint x="10" y="280" as="sourcePoint" />
            <Array as="points">
              <mxPoint x="40" y="280" />
            </Array>
          </mxGeometry>
        </mxCell>
        <mxCell id="V-Hl_M195fdvMt9U0XPw-8" value="应用层" style="text;html=1;strokeColor=none;fillColor=none;align=center;verticalAlign=middle;whiteSpace=wrap;rounded=0;" parent="V-Hl_M195fdvMt9U0XPw-1" vertex="1">
          <mxGeometry width="60" height="30" as="geometry" />
        </mxCell>
        <mxCell id="V-Hl_M195fdvMt9U0XPw-9" value="" style="html=1;points=[];perimeter=orthogonalPerimeter;" parent="V-Hl_M195fdvMt9U0XPw-1" vertex="1">
          <mxGeometry x="25" y="90" width="10" height="120" as="geometry" />
        </mxCell>
        <mxCell id="V-Hl_M195fdvMt9U0XPw-11" value="" style="group" parent="1" vertex="1" connectable="0">
          <mxGeometry x="307" y="30" width="60" height="490" as="geometry" />
        </mxCell>
        <mxCell id="V-Hl_M195fdvMt9U0XPw-12" value="" style="shape=umlLifeline;participant=umlActor;perimeter=lifelinePerimeter;whiteSpace=wrap;html=1;container=1;collapsible=0;recursiveResize=0;verticalAlign=top;spacingTop=36;outlineConnect=0;size=40;" parent="V-Hl_M195fdvMt9U0XPw-11" vertex="1">
          <mxGeometry x="20" y="30" width="20" height="460" as="geometry" />
        </mxCell>
        <mxCell id="V-Hl_M195fdvMt9U0XPw-13" value="" style="html=1;points=[];perimeter=orthogonalPerimeter;" parent="V-Hl_M195fdvMt9U0XPw-12" vertex="1">
          <mxGeometry x="5" y="180" width="10" height="80" as="geometry" />
        </mxCell>
        <mxCell id="V-Hl_M195fdvMt9U0XPw-14" value="基座" style="text;html=1;strokeColor=none;fillColor=none;align=center;verticalAlign=middle;whiteSpace=wrap;rounded=0;" parent="V-Hl_M195fdvMt9U0XPw-11" vertex="1">
          <mxGeometry width="60" height="30" as="geometry" />
        </mxCell>
        <mxCell id="V-Hl_M195fdvMt9U0XPw-15" value="" style="group" parent="1" vertex="1" connectable="0">
          <mxGeometry x="455" y="30" width="60" height="490" as="geometry" />
        </mxCell>
        <mxCell id="V-Hl_M195fdvMt9U0XPw-16" value="" style="shape=umlLifeline;participant=umlActor;perimeter=lifelinePerimeter;whiteSpace=wrap;html=1;container=1;collapsible=0;recursiveResize=0;verticalAlign=top;spacingTop=36;outlineConnect=0;size=40;" parent="V-Hl_M195fdvMt9U0XPw-15" vertex="1">
          <mxGeometry x="20" y="30" width="20" height="460" as="geometry" />
        </mxCell>
        <mxCell id="V-Hl_M195fdvMt9U0XPw-17" value="EST Client" style="text;html=1;strokeColor=none;fillColor=none;align=center;verticalAlign=middle;whiteSpace=wrap;rounded=0;" parent="V-Hl_M195fdvMt9U0XPw-15" vertex="1">
          <mxGeometry width="60" height="30" as="geometry" />
        </mxCell>
        <mxCell id="V-Hl_M195fdvMt9U0XPw-18" value="" style="html=1;points=[];perimeter=orthogonalPerimeter;" parent="V-Hl_M195fdvMt9U0XPw-15" vertex="1">
          <mxGeometry x="25" y="230" width="10" height="40" as="geometry" />
        </mxCell>
        <mxCell id="V-Hl_M195fdvMt9U0XPw-25" value="调用基座退出接口" style="html=1;verticalAlign=bottom;endArrow=block;entryX=0;entryY=0;rounded=0;exitX=0.94;exitY=1.007;exitDx=0;exitDy=0;exitPerimeter=0;" parent="1" source="V-Hl_M195fdvMt9U0XPw-9" target="V-Hl_M195fdvMt9U0XPw-13" edge="1">
          <mxGeometry relative="1" as="geometry">
            <mxPoint x="295" y="240" as="sourcePoint" />
          </mxGeometry>
        </mxCell>
        <mxCell id="V-Hl_M195fdvMt9U0XPw-26" value="调用est断开连接接口" style="html=1;verticalAlign=bottom;endArrow=block;entryX=0;entryY=0;rounded=0;" parent="1" target="V-Hl_M195fdvMt9U0XPw-18" edge="1">
          <mxGeometry relative="1" as="geometry">
            <mxPoint x="347" y="260" as="sourcePoint" />
          </mxGeometry>
        </mxCell>
        <mxCell id="V-Hl_M195fdvMt9U0XPw-27" value="消息通知结果" style="html=1;verticalAlign=bottom;endArrow=open;dashed=1;endSize=8;exitX=0;exitY=0.95;rounded=0;" parent="1" source="V-Hl_M195fdvMt9U0XPw-18" target="V-Hl_M195fdvMt9U0XPw-13" edge="1">
          <mxGeometry relative="1" as="geometry">
            <mxPoint x="412" y="346" as="targetPoint" />
          </mxGeometry>
        </mxCell>
        <mxCell id="V-Hl_M195fdvMt9U0XPw-29" value="" style="group" parent="1" vertex="1" connectable="0">
          <mxGeometry x="710" y="30" width="75" height="639.09" as="geometry" />
        </mxCell>
        <mxCell id="V-Hl_M195fdvMt9U0XPw-30" value="" style="shape=umlLifeline;participant=umlActor;perimeter=lifelinePerimeter;whiteSpace=wrap;html=1;container=1;collapsible=0;recursiveResize=0;verticalAlign=top;spacingTop=36;outlineConnect=0;" parent="V-Hl_M195fdvMt9U0XPw-29" vertex="1">
          <mxGeometry x="-13" y="30" width="20" height="460" as="geometry" />
        </mxCell>
        <mxCell id="J8PMkz5QSef-JGCZoGME-3" value="" style="html=1;points=[];perimeter=orthogonalPerimeter;" vertex="1" parent="V-Hl_M195fdvMt9U0XPw-30">
          <mxGeometry x="5" y="80" width="10" height="30" as="geometry" />
        </mxCell>
        <mxCell id="J8PMkz5QSef-JGCZoGME-6" value="" style="html=1;points=[];perimeter=orthogonalPerimeter;" vertex="1" parent="V-Hl_M195fdvMt9U0XPw-30">
          <mxGeometry x="4" y="250" width="10" height="80" as="geometry" />
        </mxCell>
        <mxCell id="V-Hl_M195fdvMt9U0XPw-34" value="UWS Client" style="text;html=1;align=center;verticalAlign=middle;resizable=0;points=[];autosize=1;strokeColor=none;fillColor=none;" parent="V-Hl_M195fdvMt9U0XPw-29" vertex="1">
          <mxGeometry x="-48" width="90" height="30" as="geometry" />
        </mxCell>
        <mxCell id="J8PMkz5QSef-JGCZoGME-10" value="开启锁屏" style="edgeStyle=orthogonalEdgeStyle;html=1;align=left;spacingLeft=2;endArrow=block;rounded=0;entryX=1.04;entryY=0.635;entryDx=0;entryDy=0;entryPerimeter=0;" edge="1" target="J8PMkz5QSef-JGCZoGME-6" parent="V-Hl_M195fdvMt9U0XPw-29">
          <mxGeometry relative="1" as="geometry">
            <mxPoint x="1" y="309.55" as="sourcePoint" />
            <Array as="points">
              <mxPoint x="31" y="310" />
              <mxPoint x="31" y="331" />
            </Array>
            <mxPoint x="6" y="329.55" as="targetPoint" />
          </mxGeometry>
        </mxCell>
        <mxCell id="G93yvb6qo560jHpWj3ij-1" value="" style="group" vertex="1" connectable="0" parent="1">
          <mxGeometry x="570" y="30" width="75" height="639.09" as="geometry" />
        </mxCell>
        <mxCell id="G93yvb6qo560jHpWj3ij-2" value="" style="shape=umlLifeline;participant=umlActor;perimeter=lifelinePerimeter;whiteSpace=wrap;html=1;container=1;collapsible=0;recursiveResize=0;verticalAlign=top;spacingTop=36;outlineConnect=0;" vertex="1" parent="G93yvb6qo560jHpWj3ij-1">
          <mxGeometry x="-13" y="30" width="20" height="460" as="geometry" />
        </mxCell>
        <mxCell id="G93yvb6qo560jHpWj3ij-6" value="" style="html=1;points=[];perimeter=orthogonalPerimeter;" vertex="1" parent="G93yvb6qo560jHpWj3ij-2">
          <mxGeometry x="5" y="210" width="10" height="40" as="geometry" />
        </mxCell>
        <mxCell id="G93yvb6qo560jHpWj3ij-7" value="断开连接：&lt;br&gt;扩展屏模式还原&lt;br&gt;分辨率还原" style="edgeStyle=orthogonalEdgeStyle;html=1;align=left;spacingLeft=2;endArrow=block;rounded=0;entryX=1;entryY=0;" edge="1" target="G93yvb6qo560jHpWj3ij-6" parent="G93yvb6qo560jHpWj3ij-2">
          <mxGeometry relative="1" as="geometry">
            <mxPoint x="9" y="190" as="sourcePoint" />
            <Array as="points">
              <mxPoint x="39" y="190" />
            </Array>
          </mxGeometry>
        </mxCell>
        <mxCell id="G93yvb6qo560jHpWj3ij-3" value="EST Server" style="text;html=1;align=center;verticalAlign=middle;resizable=0;points=[];autosize=1;strokeColor=none;fillColor=none;" vertex="1" parent="G93yvb6qo560jHpWj3ij-1">
          <mxGeometry x="-48" width="90" height="30" as="geometry" />
        </mxCell>
        <mxCell id="J8PMkz5QSef-JGCZoGME-4" value="关闭防窥屏" style="html=1;verticalAlign=bottom;endArrow=block;entryX=0;entryY=0;rounded=0;exitX=1.34;exitY=0.16;exitDx=0;exitDy=0;exitPerimeter=0;" edge="1" target="J8PMkz5QSef-JGCZoGME-3" parent="1" source="V-Hl_M195fdvMt9U0XPw-9">
          <mxGeometry relative="1" as="geometry">
            <mxPoint x="526" y="140" as="sourcePoint" />
          </mxGeometry>
        </mxCell>
        <mxCell id="J8PMkz5QSef-JGCZoGME-5" value="返回结果" style="html=1;verticalAlign=bottom;endArrow=open;dashed=1;endSize=8;exitX=0;exitY=0.95;rounded=0;entryX=1.18;entryY=0.407;entryDx=0;entryDy=0;entryPerimeter=0;" edge="1" source="J8PMkz5QSef-JGCZoGME-3" parent="1" target="V-Hl_M195fdvMt9U0XPw-9">
          <mxGeometry relative="1" as="geometry">
            <mxPoint x="190" y="200" as="targetPoint" />
          </mxGeometry>
        </mxCell>
        <mxCell id="J8PMkz5QSef-JGCZoGME-7" value="通知控制端连接断开" style="html=1;verticalAlign=bottom;endArrow=block;entryX=0;entryY=0;rounded=0;exitX=1.5;exitY=1.01;exitDx=0;exitDy=0;exitPerimeter=0;" edge="1" target="J8PMkz5QSef-JGCZoGME-6" parent="1" source="G93yvb6qo560jHpWj3ij-6">
          <mxGeometry relative="1" as="geometry">
            <mxPoint x="631" y="310" as="sourcePoint" />
          </mxGeometry>
        </mxCell>
      </root>
    </mxGraphModel>
  </diagram>
  <diagram id="O9cZvRg2ySIX5RwE84vE" name="开启键盘">
    <mxGraphModel dx="1038" dy="623" grid="1" gridSize="10" guides="1" tooltips="1" connect="1" arrows="1" fold="1" page="1" pageScale="1" pageWidth="827" pageHeight="1169" math="0" shadow="0">
      <root>
        <mxCell id="0" />
        <mxCell id="1" parent="0" />
        <mxCell id="nghhxBuFUZ7yDnFoEuTb-1" value="" style="shape=umlLifeline;participant=umlActor;perimeter=lifelinePerimeter;whiteSpace=wrap;html=1;container=1;collapsible=0;recursiveResize=0;verticalAlign=top;spacingTop=36;outlineConnect=0;size=40;" vertex="1" parent="1">
          <mxGeometry x="167.5" y="60" width="25" height="380" as="geometry" />
        </mxCell>
        <mxCell id="nghhxBuFUZ7yDnFoEuTb-2" value="开启键盘" style="html=1;verticalAlign=bottom;startArrow=oval;endArrow=block;startSize=8;rounded=0;" edge="1" parent="nghhxBuFUZ7yDnFoEuTb-1" target="nghhxBuFUZ7yDnFoEuTb-6">
          <mxGeometry relative="1" as="geometry">
            <mxPoint x="-100" y="60" as="sourcePoint" />
          </mxGeometry>
        </mxCell>
        <mxCell id="nghhxBuFUZ7yDnFoEuTb-3" value="" style="html=1;points=[];perimeter=orthogonalPerimeter;" vertex="1" parent="nghhxBuFUZ7yDnFoEuTb-1">
          <mxGeometry x="7.5" y="240" width="10" height="30" as="geometry" />
        </mxCell>
        <mxCell id="qhrRIWpnFtGJdyxAxpvm-4" value="" style="html=1;points=[];perimeter=orthogonalPerimeter;" vertex="1" parent="nghhxBuFUZ7yDnFoEuTb-1">
          <mxGeometry x="7.5" y="110" width="10" height="40" as="geometry" />
        </mxCell>
        <mxCell id="qhrRIWpnFtGJdyxAxpvm-5" value="显示虚拟键盘" style="edgeStyle=orthogonalEdgeStyle;html=1;align=left;spacingLeft=2;endArrow=block;rounded=0;entryX=1;entryY=0;" edge="1" target="qhrRIWpnFtGJdyxAxpvm-4" parent="nghhxBuFUZ7yDnFoEuTb-1">
          <mxGeometry relative="1" as="geometry">
            <mxPoint x="10" y="90" as="sourcePoint" />
            <Array as="points">
              <mxPoint x="40" y="90" />
            </Array>
          </mxGeometry>
        </mxCell>
        <mxCell id="qhrRIWpnFtGJdyxAxpvm-9" value="" style="html=1;points=[];perimeter=orthogonalPerimeter;" vertex="1" parent="nghhxBuFUZ7yDnFoEuTb-1">
          <mxGeometry x="7.5" y="290" width="10" height="40" as="geometry" />
        </mxCell>
        <mxCell id="qhrRIWpnFtGJdyxAxpvm-10" value="虚拟键盘调整高度" style="edgeStyle=orthogonalEdgeStyle;html=1;align=left;spacingLeft=2;endArrow=block;rounded=0;entryX=1;entryY=0;" edge="1" target="qhrRIWpnFtGJdyxAxpvm-9" parent="nghhxBuFUZ7yDnFoEuTb-1">
          <mxGeometry relative="1" as="geometry">
            <mxPoint x="12.5" y="270" as="sourcePoint" />
            <Array as="points">
              <mxPoint x="42.5" y="270" />
            </Array>
          </mxGeometry>
        </mxCell>
        <mxCell id="nghhxBuFUZ7yDnFoEuTb-5" value="应用层" style="text;html=1;strokeColor=none;fillColor=none;align=center;verticalAlign=middle;whiteSpace=wrap;rounded=0;" vertex="1" parent="1">
          <mxGeometry x="150" y="30" width="60" height="30" as="geometry" />
        </mxCell>
        <mxCell id="nghhxBuFUZ7yDnFoEuTb-6" value="" style="html=1;points=[];perimeter=orthogonalPerimeter;" vertex="1" parent="1">
          <mxGeometry x="175" y="120" width="10" height="30" as="geometry" />
        </mxCell>
        <mxCell id="nghhxBuFUZ7yDnFoEuTb-7" value="" style="group" vertex="1" connectable="0" parent="1">
          <mxGeometry x="326" y="30" width="60" height="490" as="geometry" />
        </mxCell>
        <mxCell id="nghhxBuFUZ7yDnFoEuTb-8" value="" style="shape=umlLifeline;participant=umlActor;perimeter=lifelinePerimeter;whiteSpace=wrap;html=1;container=1;collapsible=0;recursiveResize=0;verticalAlign=top;spacingTop=36;outlineConnect=0;size=40;" vertex="1" parent="nghhxBuFUZ7yDnFoEuTb-7">
          <mxGeometry x="20" y="30" width="20" height="380" as="geometry" />
        </mxCell>
        <mxCell id="qhrRIWpnFtGJdyxAxpvm-6" value="" style="html=1;points=[];perimeter=orthogonalPerimeter;" vertex="1" parent="nghhxBuFUZ7yDnFoEuTb-8">
          <mxGeometry x="5" y="200" width="10" height="40" as="geometry" />
        </mxCell>
        <mxCell id="qhrRIWpnFtGJdyxAxpvm-7" value="监听系统软键盘高度变化" style="edgeStyle=orthogonalEdgeStyle;html=1;align=left;spacingLeft=2;endArrow=block;rounded=0;entryX=1;entryY=0;" edge="1" target="qhrRIWpnFtGJdyxAxpvm-6" parent="nghhxBuFUZ7yDnFoEuTb-8">
          <mxGeometry relative="1" as="geometry">
            <mxPoint x="10" y="180" as="sourcePoint" />
            <Array as="points">
              <mxPoint x="40" y="180" />
            </Array>
          </mxGeometry>
        </mxCell>
        <mxCell id="nghhxBuFUZ7yDnFoEuTb-10" value="基座" style="text;html=1;strokeColor=none;fillColor=none;align=center;verticalAlign=middle;whiteSpace=wrap;rounded=0;" vertex="1" parent="nghhxBuFUZ7yDnFoEuTb-7">
          <mxGeometry width="60" height="30" as="geometry" />
        </mxCell>
        <mxCell id="nghhxBuFUZ7yDnFoEuTb-9" value="" style="html=1;points=[];perimeter=orthogonalPerimeter;" vertex="1" parent="nghhxBuFUZ7yDnFoEuTb-7">
          <mxGeometry x="25" y="180" width="10" height="30" as="geometry" />
        </mxCell>
        <mxCell id="nghhxBuFUZ7yDnFoEuTb-11" value="调用基座显示系统键盘接口" style="html=1;verticalAlign=bottom;endArrow=block;entryX=0;entryY=0;rounded=0;" edge="1" parent="1" source="nghhxBuFUZ7yDnFoEuTb-1" target="nghhxBuFUZ7yDnFoEuTb-9">
          <mxGeometry relative="1" as="geometry">
            <mxPoint x="210" y="270" as="sourcePoint" />
          </mxGeometry>
        </mxCell>
        <mxCell id="qhrRIWpnFtGJdyxAxpvm-8" value="通知应用层系统软键盘高度" style="html=1;verticalAlign=bottom;endArrow=open;dashed=1;endSize=8;rounded=0;" edge="1" parent="1">
          <mxGeometry relative="1" as="geometry">
            <mxPoint x="350" y="300" as="sourcePoint" />
            <mxPoint x="190" y="300" as="targetPoint" />
          </mxGeometry>
        </mxCell>
      </root>
    </mxGraphModel>
  </diagram>
  <diagram id="Uh0wzvM47BOWyZfUFVfE" name="关闭键盘">
    <mxGraphModel dx="540" dy="591" grid="1" gridSize="10" guides="1" tooltips="1" connect="1" arrows="1" fold="1" page="1" pageScale="1" pageWidth="827" pageHeight="1169" math="0" shadow="0">
      <root>
        <mxCell id="0" />
        <mxCell id="1" parent="0" />
      </root>
    </mxGraphModel>
  </diagram>
</mxfile>
